<svg width="30" height="30" viewBox="0 0 30 30" fill="none" xmlns="http://www.w3.org/2000/svg"><path d="m22.93 29.242-15.833.015C3.613 29.26.76 26.414.757 22.93L.742 7.097C.74 3.614 3.586.76 7.07.757L22.902.742c3.484-.003 6.336 2.844 6.34 6.327l.015 15.834c.004 3.484-2.844 6.336-6.327 6.34Z" fill="url(#a)"/><path d="m22.93 29.242-15.833.015C3.613 29.26.76 26.414.757 22.93L.742 7.097C.74 3.614 3.586.76 7.07.757L22.902.742c3.484-.003 6.336 2.844 6.34 6.327l.015 15.834c.004 3.484-2.844 6.336-6.327 6.34Z" fill="url(#b)"/><path d="M15 20.542A5.548 5.548 0 0 1 9.458 15 5.548 5.548 0 0 1 15 9.46 5.548 5.548 0 0 1 20.542 15 5.548 5.548 0 0 1 15 20.542Zm0-9.5A3.963 3.963 0 0 0 11.042 15 3.963 3.963 0 0 0 15 18.96 3.963 3.963 0 0 0 18.958 15 3.963 3.963 0 0 0 15 11.042ZM20.938 10.25a1.188 1.188 0 1 0 0-2.375 1.188 1.188 0 0 0 0 2.375Z" fill="#fff"/><path d="M19.75 25.292h-9.5a5.548 5.548 0 0 1-5.542-5.542v-9.5a5.548 5.548 0 0 1 5.542-5.542h9.5a5.548 5.548 0 0 1 5.542 5.542v9.5a5.548 5.548 0 0 1-5.542 5.542Zm-9.5-19a3.963 3.963 0 0 0-3.958 3.958v9.5a3.963 3.963 0 0 0 3.958 3.959h9.5a3.963 3.963 0 0 0 3.958-3.959v-9.5a3.963 3.963 0 0 0-3.958-3.958h-9.5Z" fill="#fff"/><defs><radialGradient id="a" cx="0" cy="0" r="1" gradientUnits="userSpaceOnUse" gradientTransform="translate(11.342 29.278) scale(35.545)"><stop stop-color="#FD5"/><stop offset=".328" stop-color="#FF543F"/><stop offset=".348" stop-color="#FC5245"/><stop offset=".504" stop-color="#E64771"/><stop offset=".643" stop-color="#D53E91"/><stop offset=".761" stop-color="#CC39A4"/><stop offset=".841" stop-color="#C837AB"/></radialGradient><radialGradient id="b" cx="0" cy="0" r="1" gradientUnits="userSpaceOnUse" gradientTransform="matrix(23.602 0 0 15.726 5.33 .386)"><stop stop-color="#4168C9"/><stop offset=".999" stop-color="#4168C9" stop-opacity="0"/></radialGradient></defs></svg>