<svg width="22" height="26" viewBox="0 0 22 26" fill="none" xmlns="http://www.w3.org/2000/svg"><path d="M8.46 10.387V9.43a7.058 7.058 0 0 0-1.003-.086A7.44 7.44 0 0 0 3.19 22.892 7.432 7.432 0 0 1 8.46 10.387Z" fill="#25F4EE"/><path d="M8.64 21.222a3.403 3.403 0 0 0 3.395-3.254V1.748H15A5.56 5.56 0 0 1 14.912.72H10.86v16.206a3.403 3.403 0 0 1-3.395 3.277 3.449 3.449 0 0 1-1.568-.392 3.403 3.403 0 0 0 2.744 1.41ZM20.534 7.25v-.902a5.535 5.535 0 0 1-3.066-.925 5.621 5.621 0 0 0 3.066 1.827Z" fill="#25F4EE"/><path d="M17.468 5.424a5.582 5.582 0 0 1-1.387-3.685h-1.082a5.614 5.614 0 0 0 2.47 3.685ZM7.457 13.397a3.403 3.403 0 0 0-1.569 6.414 3.395 3.395 0 0 1 2.752-5.387c.34.005.679.058 1.004.157v-4.124a7.112 7.112 0 0 0-1.004-.078h-.18v3.136a3.489 3.489 0 0 0-1.003-.118Z" fill="#FE2C55"/><path d="M20.534 7.251v3.136a9.62 9.62 0 0 1-5.622-1.827v8.24a7.456 7.456 0 0 1-7.455 7.44 7.378 7.378 0 0 1-4.265-1.348 7.44 7.44 0 0 0 12.889-5.065V9.611a9.635 9.635 0 0 0 5.629 1.803V7.376a5.747 5.747 0 0 1-1.176-.125Z" fill="#FE2C55"/><path d="M14.912 16.8V8.56a9.62 9.62 0 0 0 5.63 1.803V7.227a5.622 5.622 0 0 1-3.074-1.803 5.614 5.614 0 0 1-2.47-3.685h-2.963v16.23a3.403 3.403 0 0 1-6.154 1.857 3.402 3.402 0 0 1 1.568-6.413c.34.003.678.056 1.003.157v-3.136a7.432 7.432 0 0 0-5.268 12.544 7.377 7.377 0 0 0 4.273 1.262 7.456 7.456 0 0 0 7.455-7.44Z" fill="#000"/></svg>