<svg width="40" height="30" viewBox="0 0 40 30" fill="none" xmlns="http://www.w3.org/2000/svg"><path d="M38.4 24.488a4.785 4.785 0 0 1-4.025 3.833c-3.163.479-8.433 1.054-14.375 1.054-5.846 0-11.117-.575-14.375-1.054A4.785 4.785 0 0 1 1.6 24.487C1.217 22.284.833 19.026.833 15s.384-7.283.767-9.488A4.785 4.785 0 0 1 5.625 1.68C8.787 1.2 14.058.625 20 .625s11.117.575 14.375 1.054A4.785 4.785 0 0 1 38.4 5.512c.383 2.205.863 5.463.863 9.488-.096 4.025-.48 7.283-.863 9.488Z" fill="#FF3D00"/><path d="M16.167 21.708V8.292L27.667 15l-11.5 6.708Z" fill="#fff"/></svg>