<svg width="57" height="69" viewBox="0 0 57 69" fill="none" xmlns="http://www.w3.org/2000/svg"><path d="M23.91 10.722a2 2 0 0 1 1.902-1.38h27.056a2 2 0 0 1 1.902 2.619L37.26 65.74a2 2 0 0 1-1.902 1.38H8.302a2 2 0 0 1-1.901-2.618l17.51-53.78-.902-.294.902.293Z" stroke="#C6C6C6" stroke-width="2"/><path d="M19.74 2.38A2 2 0 0 1 21.642 1h27.055A2 2 0 0 1 50.6 3.62L33.09 57.4a2 2 0 0 1-1.901 1.38H4.132a2 2 0 0 1-1.902-2.619l17.51-53.78-.902-.294.902.294Z" stroke="#fff" stroke-width="2"/><path d="M18.073 63.951h9.732" stroke="#C6C6C6"/><path stroke="#fff" stroke-linecap="round" d="m18.196 32.669 13.083-9.158M22.314 38.223l14.519-11.879"/></svg>