<svg width="57" height="61" viewBox="0 0 57 61" fill="none" xmlns="http://www.w3.org/2000/svg"><path d="M.643 4.857h55.643V60.5H.643V4.857Z" stroke="#fff"/><path stroke="#fff" d="M7.905 26.643h41.119v22.238H7.905z"/><path stroke="#fff" d="M7.905 26.643h30.952v22.238H7.905z"/><path stroke="#fff" d="M7.905 26.643h20.786v22.238H7.905z"/><path stroke="#fff" d="M7.905 26.643h10.619v22.238H7.905z"/><path stroke="#fff" d="M7.905 26.643h10.619v7.714H7.905z"/><path stroke="#fff" d="M18.071 26.643H28.69v7.714H18.071z"/><path stroke="#fff" d="M28.238 26.643h10.619v7.714H28.238z"/><path stroke="#fff" d="M38.405 26.643h10.619v7.714H38.405zM7.905 33.905h10.619v7.714H7.905z"/><path stroke="#fff" d="M18.071 33.905H28.69v7.714H18.071z"/><path stroke="#fff" d="M28.238 33.905h10.619v7.714H28.238z"/><path stroke="#fff" d="M38.405 33.905h10.619v7.714H38.405zM7.905 41.167h10.619v7.714H7.905z"/><path stroke="#fff" d="M18.071 41.167H28.69v7.714H18.071z"/><path stroke="#fff" d="M28.238 41.167h10.619v7.714H28.238z"/><path stroke="#fff" d="M38.405 41.167h10.619v7.714H38.405z"/><rect x="10.809" y=".5" width="6.262" height="10.619" rx=".5" stroke="#fff"/><rect x="41.309" y=".5" width="6.262" height="10.619" rx=".5" stroke="#fff"/></svg>